<svg xmlns="http://www.w3.org/2000/svg" viewBox="0 0 163 184.4">
<!-- Cropped from FINOS Morphir 2020 horizontal logo; original geometry and colors. -->
<style>.st0{fill:#F26A21}.st1{fill:#16A2DC}</style>
<polygon class="st1" points="127.9,68 127.9,109.3 162.1,89.6 162.1,48.3 127.9,68 	"/>
	<polygon class="st1" points="35.1,118.2 35.1,76.8 0.9,96.6 0.9,137.9 35.1,118.2 	"/>
	<polygon class="st1" points="83,39.5 118.7,60.1 118.7,20.7 83,0 83,39.5 	"/>
	<polygon class="st1" points="80,144.9 44.2,124.3 44.2,163.7 80,184.4 80,144.9 	"/>
	<polygon class="st1" points="36.6,64.5 72.3,43.9 38.2,24.2 2.4,44.8 36.6,64.5 	"/>
	<polygon class="st1" points="126.4,119.9 90.6,140.5 124.8,160.2 160.6,139.6 126.4,119.9 	"/>
	<path class="st0" d="M137.7,52.8l18.4-10.6l-18.4-10.6V52.8L137.7,52.8z M81.5,133.8l36.7-20.8V71.4L81.5,50.6L44.8,71.4V113
		L81.5,133.8L81.5,133.8z M73.9,92.2c0,4.4-3.6,8-8,8c-4.4,0-8-3.6-8-8c0-4.4,3.6-8,8-8C70.3,84.1,73.9,87.8,73.9,92.2L73.9,92.2z
		 M89.1,92.2c0-4.4,3.6-8,8-8c4.4,0,8,3.6,8,8c0,4.4-3.6,8-8,8C92.7,100.2,89.1,96.6,89.1,92.2L89.1,92.2z M74.7,23.3l0-21.3
		L56.2,12.7L74.7,23.3L74.7,23.3z M6.8,144.1l18.4,10.6v-21.3L6.8,144.1L6.8,144.1z M0,74.3l18.4-10.6L0,53V74.3L0,74.3z
		 M106.7,171.7l-18.4-10.6v21.3L106.7,171.7L106.7,171.7z M163,110.1l-18.4,10.6l18.4,10.6V110.1L163,110.1z"/>
</svg>
